#N canvas 191 14 609 475 10;
#X obj 254 321 makenote 127 1000;
#X msg 95 99 48;
#X msg 54 99 47;
#X msg 141 100 49;
#X msg 94 45 42;
#X msg 53 45 41;
#X msg 147 45 43;
#X msg 95 153 54;
#X msg 54 153 53;
#X msg 141 154 55;
#X msg 94 208 60;
#X msg 53 208 59;
#X msg 140 209 61;
#X msg 94 263 66;
#X msg 53 263 65;
#X msg 147 263 67;
#X msg 95 318 72;
#X msg 54 318 71;
#X msg 141 319 73;
#X msg 95 372 78;
#X msg 54 372 77;
#X msg 141 373 79;
#X msg 96 426 84;
#X msg 55 426 83;
#X msg 142 427 85;
#X msg 303 234 15;
#X obj 252 370 noteout 15;
#X msg 378 232 16, f 4;
#X text 93 20 Note;
#X text 145 21 +1mV;
#X text 49 19 -1mV;
#X text 3 44 0.5V 1.0V 1.5V 2.0V 2.5V 3.0V 3.5V 4.0V;
#X text 283 212 CV OUT1;
#X text 366 211 CV OUT2;
#X text 206 45 INSTRUCTIONS ------------ 1 Choose one of the CV outputs
to calibrate 2 Click a message from the Note column 3 Check that the
voltage is as shown in the left column 4 If it isn't \, adjust by clicking
the -1mV/+1mV messages When you're done checking all rows \, switch
to the other CV output and do the same for that one;
#X connect 0 0 26 0;
#X connect 0 1 26 1;
#X connect 1 0 0 0;
#X connect 2 0 0 0;
#X connect 3 0 0 0;
#X connect 4 0 0 0;
#X connect 5 0 0 0;
#X connect 6 0 0 0;
#X connect 7 0 0 0;
#X connect 8 0 0 0;
#X connect 9 0 0 0;
#X connect 10 0 0 0;
#X connect 11 0 0 0;
#X connect 12 0 0 0;
#X connect 13 0 0 0;
#X connect 14 0 0 0;
#X connect 15 0 0 0;
#X connect 16 0 0 0;
#X connect 17 0 0 0;
#X connect 18 0 0 0;
#X connect 19 0 0 0;
#X connect 20 0 0 0;
#X connect 21 0 0 0;
#X connect 22 0 0 0;
#X connect 23 0 0 0;
#X connect 24 0 0 0;
#X connect 25 0 26 2;
#X connect 27 0 26 2;
